{
    "asset" : {
        "generator" : "Khronos glTF Blender I/O v1.5.17",
        "version" : "2.0"
    },
    "scene" : 0,
    "scenes" : [
        {
            "name" : "Scene",
            "nodes" : [
                0,
                1,
                2,
                3,
                4
            ]
        }
    ],
    "nodes" : [
        {
            "name" : "Light",
            "rotation" : [
                0.16907575726509094,
                0.7558803558349609,
                -0.27217137813568115,
                0.570947527885437
            ],
            "translation" : [
                4.076245307922363,
                5.903861999511719,
                -1.0054539442062378
            ]
        },
        {
            "name" : "Camera",
            "rotation" : [
                0.483536034822464,
                0.33687159419059753,
                -0.20870360732078552,
                0.7804827094078064
            ],
            "translation" : [
                7.358891487121582,
                4.958309173583984,
                6.925790786743164
            ]
        },
        {
            "mesh" : 0,
            "name" : "1678201_mirror24-removebg-preview.002",
            "rotation" : [
                0.7249874472618103,
                0.3482508957386017,
                -0.3608900308609009,
                0.4720941483974457
            ],
            "scale" : [
                -85.00012969970703,
                -85.00013732910156,
                -85.00013732910156
            ],
            "translation" : [
                67.87370300292969,
                43.948814392089844,
                -3.630128860473633
            ]
        },
        {
            "name" : "Sol",
            "rotation" : [
                -0.740692675113678,
                0.1998489648103714,
                -0.5462360382080078,
                0.33624541759490967
            ],
            "scale" : [
                15.644368171691895,
                15.644368171691895,
                15.644368171691895
            ],
            "translation" : [
                -2.3603155612945557,
                -7.880304336547852,
                -4.56121826171875
            ]
        },
        {
            "name" : "Sol.001",
            "rotation" : [
                0.03204839676618576,
                0,
                0.4672026038169861,
                0.8835692405700684
            ],
            "translation" : [
                -32.347625732421875,
                54.462886810302734,
                29.832141876220703
            ]
        }
    ],
    "materials" : [
        {
            "alphaMode" : "BLEND",
            "doubleSided" : true,
            "name" : "1678201_mirror24-removebg-preview.002",
            "pbrMetallicRoughness" : {
                "baseColorTexture" : {
                    "index" : 0
                },
                "metallicFactor" : 0,
                "roughnessFactor" : 0.5
            }
        },
        {
            "alphaMode" : "BLEND",
            "doubleSided" : true,
            "name" : "1678201_mirror22-removebg-preview",
            "pbrMetallicRoughness" : {
                "baseColorTexture" : {
                    "index" : 1
                },
                "metallicFactor" : 0,
                "roughnessFactor" : 0.5
            }
        },
        {
            "alphaMode" : "BLEND",
            "doubleSided" : true,
            "name" : "1678201_mirror23-removebg-preview",
            "pbrMetallicRoughness" : {
                "baseColorTexture" : {
                    "index" : 2
                },
                "metallicFactor" : 0,
                "roughnessFactor" : 0.5
            }
        },
        {
            "alphaMode" : "BLEND",
            "doubleSided" : true,
            "name" : "1678201_mirror24-removebg-preview",
            "pbrMetallicRoughness" : {
                "baseColorTexture" : {
                    "index" : 3
                },
                "metallicFactor" : 0,
                "roughnessFactor" : 0.5
            }
        },
        {
            "alphaMode" : "BLEND",
            "doubleSided" : true,
            "name" : "1678201_mirror25-removebg-preview",
            "pbrMetallicRoughness" : {
                "baseColorTexture" : {
                    "index" : 4
                },
                "metallicFactor" : 0,
                "roughnessFactor" : 0.5
            }
        },
        {
            "alphaMode" : "BLEND",
            "doubleSided" : true,
            "name" : "1678201_mirror24-removebg-preview.001",
            "pbrMetallicRoughness" : {
                "baseColorTexture" : {
                    "index" : 5
                },
                "metallicFactor" : 0,
                "roughnessFactor" : 0.5
            }
        },
        {
            "alphaMode" : "BLEND",
            "doubleSided" : true,
            "name" : "1678201_mirror25-removebg-preview.001",
            "pbrMetallicRoughness" : {
                "baseColorTexture" : {
                    "index" : 6
                },
                "metallicFactor" : 0,
                "roughnessFactor" : 0.5
            }
        }
    ],
    "meshes" : [
        {
            "name" : "1678201_mirror24-removebg-preview.002",
            "primitives" : [
                {
                    "attributes" : {
                        "POSITION" : 0,
                        "NORMAL" : 1,
                        "TEXCOORD_0" : 2
                    },
                    "indices" : 3,
                    "material" : 0
                },
                {
                    "attributes" : {
                        "POSITION" : 4,
                        "NORMAL" : 5,
                        "TEXCOORD_0" : 6
                    },
                    "indices" : 3,
                    "material" : 1
                },
                {
                    "attributes" : {
                        "POSITION" : 7,
                        "NORMAL" : 8,
                        "TEXCOORD_0" : 9
                    },
                    "indices" : 3,
                    "material" : 2
                },
                {
                    "attributes" : {
                        "POSITION" : 10,
                        "NORMAL" : 11,
                        "TEXCOORD_0" : 12
                    },
                    "indices" : 3,
                    "material" : 3
                },
                {
                    "attributes" : {
                        "POSITION" : 13,
                        "NORMAL" : 14,
                        "TEXCOORD_0" : 15
                    },
                    "indices" : 3,
                    "material" : 4
                },
                {
                    "attributes" : {
                        "POSITION" : 16,
                        "NORMAL" : 17,
                        "TEXCOORD_0" : 18
                    },
                    "indices" : 3,
                    "material" : 5
                },
                {
                    "attributes" : {
                        "POSITION" : 19,
                        "NORMAL" : 20,
                        "TEXCOORD_0" : 21
                    },
                    "indices" : 3,
                    "material" : 6
                }
            ]
        }
    ],
    "textures" : [
        {
            "sampler" : 0,
            "source" : 0
        },
        {
            "sampler" : 0,
            "source" : 1
        },
        {
            "sampler" : 0,
            "source" : 2
        },
        {
            "sampler" : 0,
            "source" : 0
        },
        {
            "sampler" : 0,
            "source" : 3
        },
        {
            "sampler" : 0,
            "source" : 0
        },
        {
            "sampler" : 0,
            "source" : 3
        }
    ],
    "images" : [
        {
            "bufferView" : 4,
            "mimeType" : "image/png",
            "name" : "1678201_mirror24-removebg-preview"
        },
        {
            "bufferView" : 8,
            "mimeType" : "image/png",
            "name" : "1678201_mirror22-removebg-preview"
        },
        {
            "bufferView" : 12,
            "mimeType" : "image/png",
            "name" : "1678201_mirror23-removebg-preview"
        },
        {
            "bufferView" : 19,
            "mimeType" : "image/png",
            "name" : "1678201_mirror25-removebg-preview"
        }
    ],
    "accessors" : [
        {
            "bufferView" : 0,
            "componentType" : 5126,
            "count" : 4,
            "max" : [
                0.2663865387439728,
                -0.051680877804756165,
                0.5753368139266968
            ],
            "min" : [
                -0.4391694664955139,
                -0.3714042603969574,
                -0.4304865300655365
            ],
            "type" : "VEC3"
        },
        {
            "bufferView" : 1,
            "componentType" : 5126,
            "count" : 4,
            "type" : "VEC3"
        },
        {
            "bufferView" : 2,
            "componentType" : 5126,
            "count" : 4,
            "type" : "VEC2"
        },
        {
            "bufferView" : 3,
            "componentType" : 5123,
            "count" : 6,
            "type" : "SCALAR"
        },
        {
            "bufferView" : 5,
            "componentType" : 5126,
            "count" : 4,
            "max" : [
                1.3474509716033936,
                0.3688848912715912,
                0.6444146633148193
            ],
            "min" : [
                0.6925361752510071,
                0.052763424813747406,
                -0.47762060165405273
            ],
            "type" : "VEC3"
        },
        {
            "bufferView" : 6,
            "componentType" : 5126,
            "count" : 4,
            "type" : "VEC3"
        },
        {
            "bufferView" : 7,
            "componentType" : 5126,
            "count" : 4,
            "type" : "VEC2"
        },
        {
            "bufferView" : 9,
            "componentType" : 5126,
            "count" : 4,
            "max" : [
                1.539095163345337,
                1.255118727684021,
                0.41870877146720886
            ],
            "min" : [
                0.9301325678825378,
                0.6731805205345154,
                -0.6102932691574097
            ],
            "type" : "VEC3"
        },
        {
            "bufferView" : 10,
            "componentType" : 5126,
            "count" : 4,
            "type" : "VEC3"
        },
        {
            "bufferView" : 11,
            "componentType" : 5126,
            "count" : 4,
            "type" : "VEC2"
        },
        {
            "bufferView" : 13,
            "componentType" : 5126,
            "count" : 4,
            "max" : [
                1.6622395515441895,
                0.971005916595459,
                0.6429998874664307
            ],
            "min" : [
                1.4098817110061646,
                0.3208284378051758,
                -0.41738802194595337
            ],
            "type" : "VEC3"
        },
        {
            "bufferView" : 14,
            "componentType" : 5126,
            "count" : 4,
            "type" : "VEC3"
        },
        {
            "bufferView" : 15,
            "componentType" : 5126,
            "count" : 4,
            "type" : "VEC2"
        },
        {
            "bufferView" : 16,
            "componentType" : 5126,
            "count" : 4,
            "max" : [
                0.9640313982963562,
                1.9558029174804688,
                0.6628140807151794
            ],
            "min" : [
                0.5190466642379761,
                0.7973954677581787,
                -0.9965900182723999
            ],
            "type" : "VEC3"
        },
        {
            "bufferView" : 17,
            "componentType" : 5126,
            "count" : 4,
            "type" : "VEC3"
        },
        {
            "bufferView" : 18,
            "componentType" : 5126,
            "count" : 4,
            "type" : "VEC2"
        },
        {
            "bufferView" : 20,
            "componentType" : 5126,
            "count" : 4,
            "max" : [
                1.6301485300064087,
                0.6531923413276672,
                0.6445567011833191
            ],
            "min" : [
                1.2056597471237183,
                0.11824269592761993,
                -0.43249720335006714
            ],
            "type" : "VEC3"
        },
        {
            "bufferView" : 21,
            "componentType" : 5126,
            "count" : 4,
            "type" : "VEC3"
        },
        {
            "bufferView" : 22,
            "componentType" : 5126,
            "count" : 4,
            "type" : "VEC2"
        },
        {
            "bufferView" : 23,
            "componentType" : 5126,
            "count" : 4,
            "max" : [
                0.8575636148452759,
                0.3221026360988617,
                0.9718021154403687
            ],
            "min" : [
                -0.015533004887402058,
                -0.3774450123310089,
                -0.4700010120868683
            ],
            "type" : "VEC3"
        },
        {
            "bufferView" : 24,
            "componentType" : 5126,
            "count" : 4,
            "type" : "VEC3"
        },
        {
            "bufferView" : 25,
            "componentType" : 5126,
            "count" : 4,
            "type" : "VEC2"
        }
    ],
    "bufferViews" : [
        {
            "buffer" : 0,
            "byteLength" : 48,
            "byteOffset" : 0
        },
        {
            "buffer" : 0,
            "byteLength" : 48,
            "byteOffset" : 48
        },
        {
            "buffer" : 0,
            "byteLength" : 32,
            "byteOffset" : 96
        },
        {
            "buffer" : 0,
            "byteLength" : 12,
            "byteOffset" : 128
        },
        {
            "buffer" : 0,
            "byteLength" : 453632,
            "byteOffset" : 140
        },
        {
            "buffer" : 0,
            "byteLength" : 48,
            "byteOffset" : 453772
        },
        {
            "buffer" : 0,
            "byteLength" : 48,
            "byteOffset" : 453820
        },
        {
            "buffer" : 0,
            "byteLength" : 32,
            "byteOffset" : 453868
        },
        {
            "buffer" : 0,
            "byteLength" : 463095,
            "byteOffset" : 453900
        },
        {
            "buffer" : 0,
            "byteLength" : 48,
            "byteOffset" : 916996
        },
        {
            "buffer" : 0,
            "byteLength" : 48,
            "byteOffset" : 917044
        },
        {
            "buffer" : 0,
            "byteLength" : 32,
            "byteOffset" : 917092
        },
        {
            "buffer" : 0,
            "byteLength" : 461357,
            "byteOffset" : 917124
        },
        {
            "buffer" : 0,
            "byteLength" : 48,
            "byteOffset" : 1378484
        },
        {
            "buffer" : 0,
            "byteLength" : 48,
            "byteOffset" : 1378532
        },
        {
            "buffer" : 0,
            "byteLength" : 32,
            "byteOffset" : 1378580
        },
        {
            "buffer" : 0,
            "byteLength" : 48,
            "byteOffset" : 1378612
        },
        {
            "buffer" : 0,
            "byteLength" : 48,
            "byteOffset" : 1378660
        },
        {
            "buffer" : 0,
            "byteLength" : 32,
            "byteOffset" : 1378708
        },
        {
            "buffer" : 0,
            "byteLength" : 257442,
            "byteOffset" : 1378740
        },
        {
            "buffer" : 0,
            "byteLength" : 48,
            "byteOffset" : 1636184
        },
        {
            "buffer" : 0,
            "byteLength" : 48,
            "byteOffset" : 1636232
        },
        {
            "buffer" : 0,
            "byteLength" : 32,
            "byteOffset" : 1636280
        },
        {
            "buffer" : 0,
            "byteLength" : 48,
            "byteOffset" : 1636312
        },
        {
            "buffer" : 0,
            "byteLength" : 48,
            "byteOffset" : 1636360
        },
        {
            "buffer" : 0,
            "byteLength" : 32,
            "byteOffset" : 1636408
        }
    ],
    "samplers" : [
        {
            "magFilter" : 9729,
            "minFilter" : 9987,
            "wrapS" : 33071,
            "wrapT" : 33071
        }
    ],
    "buffers" : [
        {
            "byteLength" : 1636440,
            "uri" : "data:application/octet-stream;base64,"
        }
    ]
}
